<svg
  ria-hidden="true" 
  style="position: absolute; width: 0; height: 0; overflow: hidden;" 
  version="1.1" 
  xmlns="http://www.w3.org/2000/svg" 
  xmlns:xlink="http://www.w3.org/1999/xlink">
  <defs>
    <symbol id="search" viewBox="0 0 24 24">
      <path fill="currentColor" d="M 11.999684,3 C 8.3615549,3 5.0767529,5.19483 3.6845719,8.555981 c -1.392178,3.361147 -0.621268,7.235697 1.951241,9.808206 2.572509,2.57251 6.4470601,3.343419 9.8082061,1.951241 C 18.80517,18.923247 21,15.638445 21,12.000316 21,7.038468 16.961533,3 11.999684,3 Z m 0,1.500053 c 4.151161,0 7.500264,3.349102 7.500264,7.500263 0,3.035719 -1.825416,5.767675 -4.629985,6.929321 C 12.065401,20.09128 8.8430819,19.450105 6.6964889,17.303512 4.5498949,15.156918 3.9087199,11.934599 5.0703629,9.130037 6.2320089,6.325468 8.9639649,4.500053 11.999684,4.500053 Z m -1.12504,2.250079 c -1.6663101,0 -3.1734671,1.007076 -3.8111081,2.546537 -0.63764,1.53946 -0.28391,3.317168 0.894319,4.495397 1.178229,1.178229 2.9559381,1.531959 4.4953971,0.894319 0.270296,-0.111956 0.52309,-0.252112 0.757992,-0.413833 l 2.008188,2.00828 a 0.75002636,0.75002636 0 0 0 1.060767,0 0.75002636,0.75002636 0 0 0 0,-1.060767 l -2.008737,-2.008646 c 0.463489,-0.673997 0.728327,-1.483778 0.728327,-2.336142 0,-2.269369 -1.855776,-4.125145 -4.125145,-4.125145 z m 0,1.500052 c 1.458681,0 2.625093,1.166412 2.625093,2.625093 0,1.0639 -0.637571,2.01812 -1.620449,2.425225 C 10.896413,13.707607 9.7708439,13.483704 9.0185309,12.73139 8.2662169,11.979077 8.0423139,10.853509 8.4494189,9.870633 8.8565249,8.887755 9.8107439,8.250184 10.874644,8.250184 Z" />
    </symbol>
    <symbol id="help" viewBox="0 0 24 24">
      <path fill="currentColor" d="M 11.999684,3 C 8.3615549,3 5.0767529,5.19483 3.6845719,8.555981 c -1.392178,3.361147 -0.621268,7.235697 1.951241,9.808206 2.572509,2.57251 6.4470601,3.343419 9.8082061,1.951241 C 18.80517,18.923247 21,15.638445 21,12.000316 21,7.038468 16.961533,3 11.999684,3 Z m 0,1.500053 c 4.151161,0 7.500264,3.349102 7.500264,7.500263 0,3.035719 -1.825416,5.767675 -4.629985,6.929321 C 12.065401,20.09128 8.8430819,19.450105 6.6964889,17.303512 4.5498949,15.156918 3.9087199,11.934599 5.0703629,9.130037 6.2320089,6.325468 8.9639649,4.500053 11.999684,4.500053 Z m -0.0099,2.25017 c -0.649636,0.0097 -1.437349,0.153039 -2.1095411,0.694544 -1.063567,0.855951 -1.161203,2.006357 -1.161204,2.006357 a 0.65627306,0.65627306 0 0 0 0.624045,0.686944 0.65627306,0.65627306 0 0 0 0.6870371,-0.624045 c 0,0 -0.01892,-0.490059 0.67321,-1.046943 l 1.83e-4,-9.1e-5 1.84e-4,-9.1e-5 c 0.369262,-0.297472 0.830105,-0.397112 1.305313,-0.404312 0.43456,-0.0054 0.834907,0.0892 0.952182,0.145025 h 9.1e-5 c 0.196503,0.09354 0.46737,0.250612 0.667626,0.466294 0.200256,0.215683 0.339581,0.460426 0.339581,0.867218 0,0.466362 -0.122392,0.720607 -0.355145,0.993657 -0.232754,0.273051 -0.607677,0.539994 -1.059028,0.842681 -1.044817,0.700678 -1.445302,1.656979 -1.445302,2.497921 a 0.65627306,0.65627306 0 0 0 0.656273,0.656273 0.65627306,0.65627306 0 0 0 0.656273,-0.656273 c 0,-0.525042 0.09264,-0.890674 0.86383,-1.407856 0.456649,-0.30624 0.934132,-0.62059 1.326829,-1.081276 0.392697,-0.460685 0.668816,-1.092697 0.668816,-1.845127 0,-0.751528 -0.316961,-1.35822 -0.69024,-1.760254 C 14.217518,7.378835 13.797624,7.152017 13.525361,7.022419 13.095202,6.817652 12.581047,6.742669 11.991249,6.750223 h -7.33e-4 z m -0.271372,8.625212 a 0.93753295,0.93753295 0 0 0 -0.937533,0.937533 0.93753295,0.93753295 0 0 0 0.937533,0.937533 0.93753295,0.93753295 0 0 0 0.937533,-0.937533 0.93753295,0.93753295 0 0 0 -0.937533,-0.937533 z" />
    </symbol>
    <symbol id="info" viewBox="0 0 24 24">
      <path fill="currentColor" d="m 12,2.625 c -5.168386,0 -9.375,4.206614 -9.375,9.375 0,5.168386 4.206614,9.375 9.375,9.375 5.168386,0 9.375,-4.206614 9.375,-9.375 0,-5.168386 -4.206614,-9.375 -9.375,-9.375 z m 0,1.5 c 4.357542,0 7.875,3.517458 7.875,7.875 0,4.357542 -3.517458,7.875 -7.875,7.875 C 7.642458,19.875 4.125,16.357542 4.125,12 4.125,7.642458 7.642458,4.125 12,4.125 Z m 0,2.34375 A 1.21875,1.21875 0 1 0 13.21875,7.6875 1.21875,1.21875 0 0 0 12,6.46875 Z M 10.6875,9.9375 a 0.75,0.75 0 0 0 -0.75,0.75 0.75,0.75 0 0 0 0.75,0.75 h 0.75 v 4.125 H 10.125 a 0.75,0.75 0 0 0 -0.75,0.75 0.75,0.75 0 0 0 0.75,0.75 h 4.125 a 0.75,0.75 0 0 0 0.75,-0.75 0.75,0.75 0 0 0 -0.75,-0.75 h -1.3125 v -4.875 a 0.750075,0.750075 0 0 0 -0.75,-0.75 z" />
    </symbol>
    <symbol id="refresh" viewBox="0 0 24 24">
      <path fill="currentColor" d="m 11.624084,2.2500042 c -5.3739815,4.99e-4 -9.7490805,4.3759 -9.7490805,9.7499968 0,5.374403 4.375594,9.749996 9.7499965,9.749996 h 9.1e-5 c 4.129568,-2.81e-4 7.816734,-2.606846 9.194547,-6.499784 a 0.74999975,0.74999975 0 0 0 -0.456757,-0.957275 0.74999975,0.74999975 0 0 0 -0.957275,0.456848 c -1.16757,3.298904 -4.281188,5.499937 -7.780606,5.500212 -4.5630835,0 -8.2499965,-3.686914 -8.2499965,-8.249997 0,-4.5630838 3.686913,-8.2499978 8.2499965,-8.2499978 h 4.58e-4 4.57e-4 c 2.251545,-0.0028 4.404498,0.917585 5.958799,2.546173 l 0.462159,0.537688 -2.385955,2.385955 c -0.4725,0.4725 -0.137798,1.2801818 0.530639,1.2801818 h 5.18344 a 0.74999975,0.74999975 0 0 0 0.749999,-0.7499998 v -5.183439 c 0,-0.668437 -0.807681,-1.004077 -1.280181,-0.53064 l -1.734283,1.734283 -0.41922,-0.487792 -0.01309,-0.01382 c -1.837735,-1.93018 -4.388143,-3.021652 -7.05322,-3.018584 z" />
    </symbol>
  </defs>
</svg>